<svg width="470" height="89" viewBox="0 0 470 89" fill="none" xmlns="http://www.w3.org/2000/svg">
<g clip-path="url(#clip0_595_62)">
<path d="M234.097 14.4224C232.891 14.4224 231.783 14.1656 230.773 13.6521C229.777 13.1253 228.971 12.4076 228.354 11.4991C227.75 10.5905 227.403 9.5634 227.312 8.41778H230.93C231.048 8.94451 231.252 9.40538 231.54 9.80043C231.842 10.1955 232.208 10.5049 232.641 10.7287C233.087 10.9394 233.579 11.0448 234.117 11.0448C234.628 11.0448 235.1 10.946 235.533 10.7485C235.965 10.5379 236.332 10.2547 236.634 9.89915C236.949 9.53048 237.172 9.10252 237.303 8.6153H233.113V5.81051H237.303C237.172 5.32329 236.949 4.90192 236.634 4.54639C236.332 4.17768 235.965 3.89457 235.533 3.69704C235.1 3.48636 234.628 3.38101 234.117 3.38101C233.579 3.38101 233.087 3.49294 232.641 3.7168C232.208 3.92749 231.842 4.23036 231.54 4.62539C231.252 5.02043 231.048 5.48131 230.93 6.00804H227.312C227.403 4.86242 227.757 3.83531 228.374 2.92672C228.99 2.01812 229.796 1.30705 230.793 0.7935C231.802 0.266779 232.904 0.00341797 234.097 0.00341797C235.447 0.00341797 236.661 0.319451 237.735 0.951515C238.824 1.57041 239.676 2.42633 240.292 3.51928C240.908 4.61223 241.216 5.84343 241.216 7.21291C241.216 8.56921 240.908 9.80043 240.292 10.9065C239.676 11.9995 238.824 12.862 237.735 13.4941C236.661 14.1129 235.447 14.4224 234.097 14.4224Z" fill="white"/>
<path d="M244.348 14.4023C243.928 14.4023 243.561 14.376 243.247 14.3233C242.932 14.2706 242.657 14.2048 242.421 14.1257V10.5703C242.433 10.5703 242.44 10.5703 242.44 10.5703C242.676 10.5835 242.905 10.5967 243.129 10.6099C243.351 10.6099 243.581 10.6099 243.817 10.6099C243.948 10.6099 244.066 10.5835 244.171 10.5309C244.276 10.4782 244.368 10.3926 244.446 10.2741C244.525 10.1556 244.591 9.99758 244.643 9.80005C244.8 9.23381 244.911 8.33181 244.977 7.09402C245.043 5.84305 245.075 4.31556 245.075 2.51154V0.299316H256.384V14.1257H252.687V3.87444H248.615V4.19047C248.59 6.09983 248.491 7.81826 248.32 9.34575C248.163 10.8733 247.901 11.9794 247.534 12.6641C247.219 13.2434 246.8 13.678 246.275 13.9677C245.751 14.2574 245.108 14.4023 244.348 14.4023Z" fill="white"/>
<path d="M259.913 0.299316H269.845V3.5189H263.532V5.71137H267.741V8.71368H263.532V10.9061H270.336V14.1257H259.913V0.299316Z" fill="white"/>
<path d="M273.147 0.299316H276.804V5.43485H278.674L282.017 0.299316H286.048L281.781 6.91624L286.423 14.1257H281.997L278.654 8.99021H276.804V14.1257H273.147V0.299316Z" fill="white"/>
<path d="M292.034 3.87444H287.235V0.299316H300.531V3.87444H295.731V14.1257H292.034V3.87444Z" fill="white"/>
<path d="M302.86 0.299316H308.74C310.47 0.299316 311.828 0.707525 312.811 1.52394C313.795 2.34036 314.286 3.47281 314.286 4.92129C314.286 6.34344 313.795 7.4693 312.811 8.29889C311.828 9.1153 310.47 9.52351 308.74 9.52351H306.498V14.1257H302.86V0.299316ZM308.779 6.61996C309.317 6.61996 309.75 6.47512 310.077 6.18542C310.418 5.89572 310.589 5.52044 310.589 5.05955C310.589 4.5855 310.418 4.21022 310.077 3.93369C309.75 3.64399 309.317 3.49914 308.779 3.49914H306.498V6.61996H308.779Z" fill="white"/>
<path d="M370.984 0.299316H374.682V5.43485H379.874V0.299316H383.572V14.1257H379.874V8.99021H374.682V14.1257H370.984V0.299316Z" fill="white"/>
<path d="M387.119 0.299316H390.816V5.43485H396.008V0.299316H399.705V14.1257H396.008V8.99021H390.816V14.1257H387.119V0.299316Z" fill="white"/>
<path d="M406.89 0.299316H411.709L416.764 14.1257H412.83L411.965 11.5579H406.536L405.691 14.1257H401.836L406.89 0.299316ZM411.021 8.59516L409.33 3.49914H409.172L407.48 8.59516H411.021Z" fill="white"/>
<path d="M420.893 8.89145C420.067 8.52275 419.424 7.99602 418.965 7.31129C418.519 6.62655 418.296 5.81013 418.296 4.86204C418.296 3.43989 418.788 2.32719 419.771 1.52394C420.768 0.707525 422.132 0.299316 423.862 0.299316H430.235V14.1257H426.596V9.44451H424.629L421.443 14.1257H417.352L420.893 8.89145ZM426.596 6.52121V3.55841H423.764C423.226 3.55841 422.793 3.69666 422.466 3.9732C422.151 4.23655 421.994 4.59209 421.994 5.0398C421.994 5.47434 422.151 5.82988 422.466 6.10642C422.793 6.38294 423.226 6.52121 423.764 6.52121H426.596Z" fill="white"/>
<path d="M228.452 24.002H232.071V32.2781L237.558 24.002H241.432V37.8284H237.814V29.5325L232.307 37.8284H228.452V24.002Z" fill="white"/>
<path d="M244.97 24.002H248.667V29.1375H253.86V24.002H257.557V37.8284H253.86V32.6929H248.667V37.8284H244.97V24.002Z" fill="white"/>
<path d="M267.791 36.209H266.336C265.063 36.209 263.956 35.9851 263.011 35.5374C262.081 35.0896 261.359 34.4576 260.848 33.6412C260.337 32.8248 260.081 31.8766 260.081 30.7969C260.081 29.7171 260.337 28.769 260.848 27.9526C261.359 27.1362 262.081 26.5106 263.011 26.0761C263.956 25.6284 265.063 25.4046 266.336 25.4046H267.791V23.8047H271.489V25.4046H272.924C274.196 25.4046 275.297 25.6284 276.228 26.0761C277.172 26.5106 277.9 27.1362 278.411 27.9526C278.922 28.769 279.179 29.7171 279.179 30.7969C279.179 31.8766 278.922 32.8248 278.411 33.6412C277.9 34.4576 277.172 35.0896 276.228 35.5374C275.297 35.9851 274.196 36.209 272.924 36.209H271.489V37.8286H267.791V36.209ZM267.791 32.9696V28.6242H266.355C265.542 28.6242 264.92 28.8151 264.487 29.1969C264.067 29.5656 263.858 30.099 263.858 30.7969C263.858 31.2577 263.949 31.6528 264.133 31.982C264.33 32.298 264.611 32.5416 264.979 32.7128C265.345 32.8839 265.805 32.9696 266.355 32.9696H267.791ZM272.905 32.9696C273.455 32.9696 273.914 32.8839 274.281 32.7128C274.648 32.5416 274.923 32.298 275.107 31.982C275.304 31.6528 275.402 31.2577 275.402 30.7969C275.402 30.099 275.186 29.5656 274.753 29.1969C274.333 28.8151 273.717 28.6242 272.905 28.6242H271.489V32.9696H272.905Z" fill="white"/>
<path d="M288.046 38.1245C286.682 38.1245 285.443 37.8151 284.329 37.1962C283.228 36.5641 282.362 35.7017 281.733 34.6087C281.117 33.5026 280.808 32.2714 280.808 30.9151C280.808 29.5587 281.117 28.3342 281.733 27.2412C282.362 26.1351 283.228 25.2726 284.329 24.6536C285.443 24.0216 286.682 23.7056 288.046 23.7056C289.423 23.7056 290.662 24.0216 291.764 24.6536C292.865 25.2726 293.73 26.1351 294.36 27.2412C294.989 28.3342 295.304 29.5587 295.304 30.9151C295.304 32.2714 294.989 33.5026 294.36 34.6087C293.73 35.7017 292.865 36.5641 291.764 37.1962C290.662 37.8151 289.423 38.1245 288.046 38.1245ZM288.046 34.5297C288.702 34.5297 289.292 34.3717 289.816 34.0556C290.354 33.7396 290.774 33.3117 291.076 32.7718C291.376 32.2187 291.528 31.5998 291.528 30.9151C291.528 30.2303 291.376 29.618 291.076 29.0781C290.774 28.525 290.354 28.0905 289.816 27.7745C289.292 27.4585 288.702 27.3005 288.046 27.3005C287.39 27.3005 286.8 27.4585 286.276 27.7745C285.752 28.0905 285.338 28.525 285.037 29.0781C284.735 29.618 284.585 30.2303 284.585 30.9151C284.585 31.5998 284.735 32.2187 285.037 32.7718C285.338 33.3117 285.752 33.7396 286.276 34.0556C286.8 34.3717 287.39 34.5297 288.046 34.5297Z" fill="white"/>
<path d="M297.943 24.002H303.824C305.554 24.002 306.911 24.4102 307.894 25.2266C308.878 26.043 309.369 27.1754 309.369 28.624C309.369 30.0461 308.878 31.172 307.894 32.0016C306.911 32.818 305.554 33.2261 303.824 33.2261H301.581V37.8284H297.943V24.002ZM303.863 30.3227C304.4 30.3227 304.832 30.1778 305.161 29.8881C305.502 29.5984 305.672 29.2231 305.672 28.7622C305.672 28.2882 305.502 27.9129 305.161 27.6364C304.832 27.3466 304.4 27.2018 303.863 27.2018H301.581V30.3227H303.863Z" fill="white"/>
<path d="M311.829 24.002H318.005L320.562 33.2854L323.138 24.002H329.235V37.8284H325.636V26.9451L322.627 37.8284H318.418L315.428 26.9451V37.8284H311.829V24.002Z" fill="white"/>
<path d="M336.423 24.002H341.241L346.296 37.8284H342.362L341.496 35.2606H336.068L335.222 37.8284H331.368L336.423 24.002ZM340.552 32.2978L338.861 27.2018H338.704L337.013 32.2978H340.552Z" fill="white"/>
<path d="M359.157 37.8284H348.418V24.002H352.116V34.2928H357.308V24.002H361.005V34.2928H362.677V40.6134H359.157V37.8284Z" fill="white"/>
<path d="M365.051 24.002H368.67V32.2781L374.157 24.002H378.031V37.8284H374.413V29.5325L368.906 37.8284H365.051V24.002Z" fill="white"/>
<path d="M387.922 38.1245C386.558 38.1245 385.319 37.8151 384.204 37.1962C383.103 36.5641 382.238 35.7017 381.609 34.6087C380.992 33.5026 380.684 32.2714 380.684 30.9151C380.684 29.5587 380.992 28.3342 381.609 27.2412C382.238 26.1351 383.103 25.2726 384.204 24.6536C385.319 24.0216 386.558 23.7056 387.922 23.7056C389.299 23.7056 390.538 24.0216 391.639 24.6536C392.74 25.2726 393.605 26.1351 394.235 27.2412C394.864 28.3342 395.18 29.5587 395.18 30.9151C395.18 32.2714 394.864 33.5026 394.235 34.6087C393.605 35.7017 392.74 36.5641 391.639 37.1962C390.538 37.8151 389.299 38.1245 387.922 38.1245ZM387.922 34.5297C388.577 34.5297 389.167 34.3717 389.692 34.0556C390.23 33.7396 390.649 33.3117 390.951 32.7718C391.252 32.2187 391.403 31.5998 391.403 30.9151C391.403 30.2303 391.252 29.618 390.951 29.0781C390.649 28.525 390.23 28.0905 389.692 27.7745C389.167 27.4585 388.577 27.3005 387.922 27.3005C387.266 27.3005 386.676 27.4585 386.151 27.7745C385.627 28.0905 385.214 28.525 384.912 29.0781C384.61 29.618 384.46 30.2303 384.46 30.9151C384.46 31.5998 384.61 32.2187 384.912 32.7718C385.214 33.3117 385.627 33.7396 386.151 34.0556C386.676 34.3717 387.266 34.5297 387.922 34.5297Z" fill="white"/>
<path d="M397.818 24.002H401.516V29.1375H406.707V24.002H410.405V37.8284H406.707V32.6929H401.516V37.8284H397.818V24.002Z" fill="white"/>
<path d="M413.952 24.002H417.649V29.1375H422.842V24.002H426.539V37.8284H422.842V32.6929H417.649V37.8284H413.952V24.002Z" fill="white"/>
<path d="M436.438 38.1245C435.074 38.1245 433.836 37.8151 432.721 37.1962C431.619 36.5641 430.754 35.7017 430.125 34.6087C429.508 33.5026 429.2 32.2714 429.2 30.9151C429.2 29.5587 429.508 28.3342 430.125 27.2412C430.754 26.1351 431.619 25.2726 432.721 24.6536C433.836 24.0216 435.074 23.7056 436.438 23.7056C437.815 23.7056 439.054 24.0216 440.155 24.6536C441.256 25.2726 442.122 26.1351 442.752 27.2412C443.381 28.3342 443.696 29.5587 443.696 30.9151C443.696 32.2714 443.381 33.5026 442.752 34.6087C442.122 35.7017 441.256 36.5641 440.155 37.1962C439.054 37.8151 437.815 38.1245 436.438 38.1245ZM436.438 34.5297C437.094 34.5297 437.684 34.3717 438.208 34.0556C438.746 33.7396 439.165 33.3117 439.467 32.7718C439.769 32.2187 439.919 31.5998 439.919 30.9151C439.919 30.2303 439.769 29.618 439.467 29.0781C439.165 28.525 438.746 28.0905 438.208 27.7745C437.684 27.4585 437.094 27.3005 436.438 27.3005C435.782 27.3005 435.192 27.4585 434.668 27.7745C434.143 28.0905 433.73 28.525 433.428 29.0781C433.128 29.618 432.976 30.2303 432.976 30.9151C432.976 31.5998 433.128 32.2187 433.428 32.7718C433.73 33.3117 434.143 33.7396 434.668 34.0556C435.192 34.3717 435.782 34.5297 436.438 34.5297Z" fill="white"/>
<path d="M445.803 30.4609H451.526V33.3448H445.803V30.4609Z" fill="white"/>
<path d="M234.805 61.8272C233.441 61.8272 232.202 61.5177 231.087 60.8988C229.986 60.2667 229.121 59.4042 228.492 58.3113C227.875 57.2051 227.567 55.974 227.567 54.6177C227.567 53.2614 227.875 52.0367 228.492 50.9438C229.121 49.8377 229.986 48.9752 231.087 48.3563C232.202 47.7242 233.441 47.4082 234.805 47.4082C236.182 47.4082 237.421 47.7242 238.522 48.3563C239.623 48.9752 240.488 49.8377 241.118 50.9438C241.748 52.0367 242.063 53.2614 242.063 54.6177C242.063 55.974 241.748 57.2051 241.118 58.3113C240.488 59.4042 239.623 60.2667 238.522 60.8988C237.421 61.5177 236.182 61.8272 234.805 61.8272ZM234.805 58.2323C235.46 58.2323 236.05 58.0743 236.575 57.7582C237.113 57.4422 237.532 57.0143 237.834 56.4744C238.136 55.9213 238.286 55.3024 238.286 54.6177C238.286 53.9329 238.136 53.3207 237.834 52.7808C237.532 52.2277 237.113 51.7932 236.575 51.4771C236.05 51.161 235.46 51.003 234.805 51.003C234.149 51.003 233.559 51.161 233.034 51.4771C232.51 51.7932 232.097 52.2277 231.795 52.7808C231.495 53.3207 231.343 53.9329 231.343 54.6177C231.343 55.3024 231.495 55.9213 231.795 56.4744C232.097 57.0143 232.51 57.4422 233.034 57.7582C233.559 58.0743 234.149 58.2323 234.805 58.2323Z" fill="white"/>
<path d="M244.701 47.7046H255.44V50.9242H248.222V53.0376H251.447C252.995 53.0376 254.214 53.4195 255.106 54.1832C256.01 54.9338 256.463 55.9675 256.463 57.2843C256.463 58.6011 256.01 59.6414 255.106 60.4051C254.214 61.1557 252.995 61.531 251.447 61.531H244.701V47.7046ZM251.152 58.5484C251.638 58.5484 252.024 58.4299 252.312 58.193C252.614 57.9427 252.765 57.6135 252.765 57.2053C252.765 56.8103 252.614 56.4943 252.312 56.2572C252.024 56.0071 251.638 55.8819 251.152 55.8819H248.222V58.5484H251.152Z" fill="white"/>
<path d="M258.972 47.7046H264.853C266.583 47.7046 267.94 48.1128 268.924 48.9292C269.907 49.7457 270.398 50.8781 270.398 52.3266C270.398 53.7487 269.907 54.8745 268.924 55.7041C267.94 56.5206 266.583 56.9288 264.853 56.9288H262.61V61.531H258.972V47.7046ZM264.892 54.0252C265.429 54.0252 265.862 53.8804 266.19 53.5907C266.531 53.301 266.701 52.9257 266.701 52.4649C266.701 51.9908 266.531 51.6155 266.19 51.3389C265.862 51.0493 265.429 50.9044 264.892 50.9044H262.61V54.0252H264.892Z" fill="white"/>
<path d="M275.383 47.7046H280.202L285.257 61.531H281.322L280.457 58.9633H275.029L274.183 61.531H270.329L275.383 47.7046ZM279.513 56.0005L277.822 50.9044H277.665L275.973 56.0005H279.513Z" fill="white"/>
<path d="M293.161 61.8272C291.942 61.8272 290.821 61.6099 289.798 61.1754C288.788 60.7276 287.956 60.0626 287.3 59.1804C286.658 58.2981 286.304 57.2117 286.238 55.9213H289.838C289.956 56.7904 290.29 57.4686 290.84 57.9558C291.404 58.4298 292.158 58.6669 293.102 58.6669C293.836 58.6669 294.42 58.5351 294.852 58.2718C295.299 58.0085 295.521 57.6529 295.521 57.2051C295.521 56.955 295.449 56.7377 295.304 56.5533C295.161 56.3558 294.951 56.211 294.675 56.1188C294.4 56.0135 294.066 55.9608 293.672 55.9608H291.843V53.2153H293.672C293.974 53.2153 294.237 53.1692 294.459 53.077C294.682 52.9717 294.852 52.8335 294.97 52.6623C295.088 52.4779 295.147 52.2672 295.147 52.0301C295.147 51.7536 295.056 51.51 294.872 51.2994C294.689 51.0887 294.426 50.9306 294.085 50.8252C293.758 50.7068 293.37 50.6476 292.925 50.6476C292.138 50.6476 291.477 50.8318 290.939 51.2006C290.414 51.5693 290.086 52.0894 289.956 52.761H286.356C286.54 51.5627 286.953 50.5619 287.595 49.7587C288.251 48.9555 289.051 48.3629 289.995 47.981C290.939 47.5992 291.961 47.4082 293.063 47.4082C294.112 47.4082 295.075 47.5794 295.953 47.9218C296.845 48.251 297.553 48.7382 298.078 49.3834C298.602 50.0286 298.865 50.7858 298.865 51.6549C298.865 52.2474 298.74 52.7808 298.491 53.2548C298.241 53.7156 297.882 54.1041 297.41 54.4202C298 54.7493 298.452 55.1708 298.767 55.6843C299.094 56.1847 299.258 56.7706 299.258 57.4422C299.258 58.3245 298.989 59.1014 298.452 59.7729C297.914 60.4445 297.18 60.9581 296.248 61.3136C295.331 61.656 294.302 61.8272 293.161 61.8272Z" fill="white"/>
<path d="M308.136 61.8272C306.773 61.8272 305.534 61.5177 304.42 60.8988C303.318 60.2667 302.453 59.4042 301.824 58.3113C301.207 57.2051 300.899 55.974 300.899 54.6177C300.899 53.2614 301.207 52.0367 301.824 50.9438C302.453 49.8377 303.318 48.9752 304.42 48.3563C305.534 47.7242 306.773 47.4082 308.136 47.4082C309.514 47.4082 310.753 47.7242 311.854 48.3563C312.955 48.9752 313.82 49.8377 314.45 50.9438C315.079 52.0367 315.394 53.2614 315.394 54.6177C315.394 55.974 315.079 57.2051 314.45 58.3113C313.82 59.4042 312.955 60.2667 311.854 60.8988C310.753 61.5177 309.514 61.8272 308.136 61.8272ZM308.136 58.2323C308.792 58.2323 309.382 58.0743 309.907 57.7582C310.444 57.4422 310.864 57.0143 311.166 56.4744C311.468 55.9213 311.618 55.3024 311.618 54.6177C311.618 53.9329 311.468 53.3207 311.166 52.7808C310.864 52.2277 310.444 51.7932 309.907 51.4771C309.382 51.161 308.792 51.003 308.136 51.003C307.481 51.003 306.891 51.161 306.366 51.4771C305.842 51.7932 305.429 52.2277 305.127 52.7808C304.826 53.3207 304.675 53.9329 304.675 54.6177C304.675 55.3024 304.826 55.9213 305.127 56.4744C305.429 57.0143 305.842 57.4422 306.366 57.7582C306.891 58.0743 307.481 58.2323 308.136 58.2323Z" fill="white"/>
<path d="M318.033 47.7046H324.858C326.366 47.7046 327.546 48.047 328.397 48.7317C329.264 49.4033 329.696 50.325 329.696 51.4969C329.696 52.1027 329.578 52.6426 329.342 53.1167C329.106 53.5907 328.765 53.999 328.319 54.3413V54.4598C328.896 54.8022 329.335 55.2433 329.637 55.7832C329.952 56.3231 330.109 56.9288 330.109 57.6004C330.109 58.3772 329.906 59.062 329.5 59.6546C329.106 60.2471 328.542 60.7081 327.807 61.0373C327.074 61.3664 326.234 61.531 325.29 61.531H318.033V47.7046ZM324.976 58.509C325.408 58.509 325.755 58.397 326.018 58.1732C326.28 57.9361 326.411 57.6333 326.411 57.2646C326.411 56.8958 326.28 56.5996 326.018 56.3757C325.755 56.1519 325.408 56.0399 324.976 56.0399H321.554V58.509H324.976ZM324.661 53.1167C325.067 53.1167 325.395 53.0113 325.644 52.8006C325.907 52.5768 326.037 52.2871 326.037 51.9315C326.037 51.576 325.907 51.2863 325.644 51.0624C325.395 50.8385 325.067 50.7267 324.661 50.7267H321.554V53.1167H324.661Z" fill="white"/>
<path d="M336.307 47.7046H341.126L346.181 61.531H342.247L341.381 58.9633H335.953L335.107 61.531H331.253L336.307 47.7046ZM340.437 56.0005L338.746 50.9044H338.589L336.897 56.0005H340.437Z" fill="white"/>
<path d="M383.649 47.7046H393.582V50.9242H387.268V53.1167H391.477V56.119H387.268V58.3114H394.074V61.531H383.649V47.7046Z" fill="white"/>
<path d="M397.374 61.8075C396.954 61.8075 396.588 61.7812 396.273 61.7285C395.958 61.6759 395.683 61.61 395.447 61.531V57.9757C395.46 57.9757 395.467 57.9757 395.467 57.9757C395.703 57.9888 395.932 58.002 396.155 58.0152C396.378 58.0152 396.607 58.0152 396.843 58.0152C396.974 58.0152 397.092 57.9888 397.197 57.9361C397.302 57.8834 397.394 57.7979 397.473 57.6794C397.551 57.5608 397.617 57.4028 397.669 57.2053C397.826 56.6391 397.939 55.7371 398.004 54.4993C398.069 53.2483 398.102 51.7208 398.102 49.9168V47.7046H409.411V61.531H405.713V51.2797H401.643V51.5958C401.616 53.5051 401.518 55.2235 401.348 56.751C401.19 58.2785 400.928 59.3846 400.561 60.0693C400.245 60.6488 399.826 61.0833 399.301 61.373C398.777 61.6627 398.135 61.8075 397.374 61.8075Z" fill="white"/>
<path d="M412.939 47.7046H416.559V52.3069H418.958C420.636 52.3069 421.961 52.715 422.931 53.5314C423.901 54.3478 424.386 55.4737 424.386 56.909C424.386 57.8572 424.163 58.6802 423.718 59.378C423.285 60.0759 422.656 60.6092 421.829 60.978C421.017 61.3467 420.059 61.531 418.958 61.531H412.939V47.7046ZM418.899 58.3312C419.437 58.3312 419.869 58.1864 420.197 57.8966C420.525 57.6069 420.688 57.2316 420.688 56.7708C420.688 56.2967 420.525 55.9214 420.197 55.6449C419.869 55.3552 419.437 55.2103 418.899 55.2103H416.559V58.3312H418.899Z" fill="white"/>
<path d="M426.884 47.7046H430.581V52.8401H435.773V47.7046H439.471V61.531H435.773V56.3955H430.581V61.531H426.884V47.7046Z" fill="white"/>
<path d="M446.656 47.7046H451.474L456.529 61.531H452.595L451.73 58.9633H446.301L445.456 61.531H441.601L446.656 47.7046ZM450.786 56.0005L449.095 50.9044H448.937L447.246 56.0005H450.786Z" fill="white"/>
<path d="M460.658 56.2967C459.832 55.928 459.189 55.4013 458.731 54.7165C458.284 54.0318 458.061 53.2154 458.061 52.2673C458.061 50.8451 458.554 49.7325 459.537 48.9292C460.533 48.1128 461.897 47.7046 463.627 47.7046H470V61.531H466.362V56.8498H464.394L461.209 61.531H457.117L460.658 56.2967ZM466.362 53.9265V50.9637H463.529C462.991 50.9637 462.559 51.102 462.231 51.3785C461.916 51.6419 461.759 51.9973 461.759 52.4451C461.759 52.8796 461.916 53.2352 462.231 53.5116C462.559 53.7882 462.991 53.9265 463.529 53.9265H466.362Z" fill="white"/>
<path d="M234.687 85.5298C233.323 85.5298 232.097 85.2204 231.009 84.6014C229.934 83.9825 229.088 83.1266 228.472 82.0337C227.868 80.9276 227.567 79.6898 227.567 78.3203C227.567 76.9508 227.868 75.7196 228.472 74.6267C229.088 73.5205 229.934 72.658 231.009 72.0391C232.097 71.4203 233.323 71.1108 234.687 71.1108C235.893 71.1108 236.995 71.3742 237.991 71.9009C239.001 72.4144 239.807 73.1321 240.41 74.0538C241.026 74.9757 241.373 76.0028 241.452 77.1352H237.716C237.598 76.6612 237.394 76.2397 237.106 75.871C236.818 75.5023 236.464 75.2192 236.044 75.0217C235.624 74.8111 235.159 74.7057 234.648 74.7057C234.019 74.7057 233.447 74.8637 232.936 75.1797C232.438 75.4826 232.045 75.9105 231.756 76.4636C231.481 77.0035 231.343 77.6224 231.343 78.3203C231.343 79.0182 231.481 79.6437 231.756 80.1967C232.045 80.7366 232.438 81.1646 232.936 81.4806C233.447 81.7835 234.019 81.9349 234.648 81.9349C235.159 81.9349 235.624 81.8362 236.044 81.6386C236.477 81.4279 236.831 81.1383 237.106 80.7695C237.394 80.4008 237.598 79.9795 237.716 79.5055H241.452C241.373 80.6379 241.026 81.665 240.41 82.5867C239.794 83.5085 238.988 84.2327 237.991 84.7594C236.995 85.273 235.893 85.5298 234.687 85.5298Z" fill="white"/>
<path d="M243.895 71.4067H249.775C251.506 71.4067 252.863 71.8149 253.846 72.6314C254.829 73.4478 255.321 74.5802 255.321 76.0287C255.321 77.4509 254.829 78.5767 253.846 79.4063C252.863 80.2227 251.506 80.6309 249.775 80.6309H247.533V85.2331H243.895V71.4067ZM249.815 77.7274C250.352 77.7274 250.784 77.5825 251.113 77.2928C251.454 77.0031 251.624 76.6279 251.624 76.1669C251.624 75.6929 251.454 75.3177 251.113 75.0411C250.784 74.7514 250.352 74.6066 249.815 74.6066H247.533V77.7274H249.815Z" fill="white"/>
<path d="M257.781 71.4067H267.713V74.6263H261.4V76.8188H265.609V79.8211H261.4V82.0136H268.205V85.2331H257.781V71.4067Z" fill="white"/>
<path d="M269.618 81.6975H271.271C271.467 80.6705 271.605 79.6038 271.684 78.4977C271.775 77.3916 271.821 76.0353 271.821 74.4288C271.821 74.3234 271.821 74.2181 271.821 74.1128C271.821 73.9942 271.821 73.8757 271.821 73.7572V71.4067H283.287V81.6975H285.214V88.0182H281.674V85.2331H273.158V88.0182H269.618V81.6975ZM279.669 81.895V74.7251H275.44V75.0806C275.427 76.4896 275.368 77.7208 275.263 78.7742C275.171 79.8277 275.027 80.868 274.83 81.895H279.669Z" fill="white"/>
<path d="M291.229 71.4067H324.146L329.201 85.2332H297.168L296.303 82.6654H290.875L290.028 85.2332H286.174L291.229 71.4067ZM295.359 79.7026L293.667 74.6066H293.51L291.819 79.7026H295.359Z" fill="url(#paint0_linear_595_62)"/>
<path d="M350.576 51.2792H345.777V47.7041H381.319V51.2792H376.521V61.5306H350.576V51.2792Z" fill="url(#paint1_linear_595_62)"/>
<path fill-rule="evenodd" clip-rule="evenodd" d="M361.109 0H323.054L323.056 0.00321924C321.709 0.00963324 320.484 0.325631 319.381 0.951216C318.279 1.57011 317.414 2.43262 316.785 3.53874C316.168 4.63167 315.861 5.85631 315.861 7.21261C315.861 8.56892 316.168 9.80013 316.785 10.9063C317.414 11.9992 318.279 12.8617 319.381 13.4937C320.484 14.106 321.708 14.4154 323.054 14.422L361.109 14.4229C365.075 14.4229 368.289 11.1942 368.289 7.21143C368.289 3.22867 365.075 0 361.109 0ZM324.868 10.3532C324.344 10.6692 323.754 10.8272 323.098 10.8272C322.443 10.8272 321.853 10.6692 321.329 10.3532C320.803 10.0372 320.39 9.60919 320.089 9.0693C319.788 8.51624 319.636 7.89735 319.636 7.21261C319.636 6.52787 319.788 5.91556 320.089 5.37567C320.39 4.82261 320.803 4.38807 321.329 4.07204C321.853 3.75601 322.443 3.59799 323.098 3.59799C323.754 3.59799 324.344 3.75601 324.868 4.07204C325.406 4.38807 325.825 4.82261 326.127 5.37567C326.429 5.91556 326.579 6.52787 326.579 7.21261C326.579 7.89735 326.429 8.51624 326.127 9.0693C325.825 9.60919 325.406 10.0372 324.868 10.3532Z" fill="url(#paint2_linear_595_62)"/>
<path d="M1.58765 6.03174H10.4607V18.4565H14.9905L23.0696 6.03174H32.8299L22.5092 22.0198L33.7172 39.4145H23.0229L14.9439 26.9897H10.4607V39.4145H1.58765V6.03174Z" fill="white"/>
<path d="M38.5274 6.03174H53.5182L59.6825 28.4432L65.8936 6.03174H80.6041V39.4145H71.9179V13.1115L64.6794 39.4145H54.4988L47.167 13.1115V39.4145H38.4807V6.03174H38.5274Z" fill="white"/>
<path d="M102.786 40.1174C99.8906 40.1174 97.1822 39.5079 94.8006 38.242C92.4189 36.9761 90.4108 35.2413 88.9164 33.0845C87.4219 30.8809 86.5814 28.4428 86.3945 25.6766H95.0808C95.4076 26.8956 95.9214 28.0209 96.6219 28.9586C97.3223 29.8963 98.2096 30.6465 99.2839 31.1622C100.358 31.6779 101.526 31.9593 102.786 31.9593C104.001 31.9593 105.168 31.7248 106.243 31.256C107.316 30.7871 108.203 30.0839 108.95 29.2399C109.698 28.3491 110.212 27.3645 110.538 26.1923H100.405V19.3001H110.538C110.212 18.1749 109.698 17.1433 108.95 16.2525C108.203 15.3617 107.316 14.7053 106.243 14.2364C105.168 13.7676 104.047 13.5332 102.833 13.5332C101.526 13.5332 100.358 13.8145 99.2839 14.3302C98.2096 14.8459 97.3223 15.5961 96.6219 16.5338C95.9214 17.4716 95.4076 18.5499 95.0808 19.8158H86.3945C86.5814 17.0964 87.4219 14.6115 88.9164 12.4078C90.4108 10.2043 92.3722 8.46947 94.8006 7.25044C97.2289 5.98452 99.8906 5.375 102.786 5.375C106.008 5.375 108.95 6.12518 111.566 7.62552C114.181 9.12588 116.235 11.1889 117.73 13.8613C119.225 16.5338 119.972 19.4876 119.972 22.8166C119.972 26.0985 119.225 29.0523 117.73 31.7248C116.235 34.3974 114.181 36.4603 111.566 37.9607C108.95 39.3673 106.008 40.1174 102.786 40.1174Z" fill="white"/>
<path d="M126.37 6.03174H156.865V39.4145H147.946V14.6118H135.289V39.4145H126.37V6.03174Z" fill="white"/>
<path d="M174.004 14.6587H162.469V6.03174H194.551V14.6587H182.971V39.4145H174.05V14.6587H174.004Z" fill="white"/>
<path d="M5.7907 57.0901C6.9115 57.0901 7.4252 57.6529 7.4252 58.6843V62.1538H6.16426V58.8718C6.16426 58.4499 5.9775 58.2623 5.55721 58.2623H1.49427V62.1538H0.233398V53.48H1.49427V57.0901H4.43639L6.21102 53.48H7.61201L5.7907 57.0901Z" fill="white"/>
<path d="M8.68604 58.9656C8.68604 57.0902 10.087 55.5898 12.1418 55.5898C14.1967 55.5898 15.551 57.0902 15.551 58.9656C15.551 60.8411 14.1967 62.3414 12.1418 62.3414C10.0403 62.3414 8.68604 60.8411 8.68604 58.9656ZM14.2901 58.9656C14.2901 57.7465 13.4028 56.762 12.0951 56.762C10.7409 56.762 9.85358 57.7465 9.85358 58.9656C9.85358 60.1846 10.7409 61.1693 12.0951 61.1693C13.4495 61.1693 14.2901 60.1377 14.2901 58.9656Z" fill="white"/>
<path d="M22.9297 62.1538H21.7155V56.9495H18.7267C18.7267 57.8871 18.7267 59.1062 18.68 59.8095C18.5399 62.2007 17.2323 62.2007 16.4852 62.2007H16.2983V60.9817H16.4384C16.8587 60.9817 17.4191 60.9817 17.5125 59.8095C17.5592 59.1531 17.5592 56.8088 17.5592 55.7773H23.0232V62.1538H22.9297Z" fill="white"/>
<path d="M30.8686 62.1538H29.6545V56.9495H26.6657C26.6657 57.8871 26.6657 59.1062 26.619 59.8095C26.4789 62.2007 25.1713 62.2007 24.4241 62.2007H24.2373V60.9817H24.3774C24.7977 60.9817 25.3581 60.9817 25.4515 59.8095C25.4982 59.1531 25.4981 56.8088 25.4981 55.7773H30.9621V62.1538H30.8686Z" fill="white"/>
<path d="M38.8079 59.3876H33.5309C33.6243 60.3721 34.4648 61.1693 35.5856 61.1693C36.4262 61.1693 37.08 60.7941 37.3602 60.1846H38.6211C38.2008 61.5443 36.9866 62.3414 35.4922 62.3414C33.4375 62.3414 32.1765 60.7941 32.1765 58.9656C32.1765 57.0902 33.5309 55.5898 35.4922 55.5898C37.6404 55.5429 38.9947 57.2308 38.8079 59.3876ZM33.5776 58.3091H37.5003C37.3136 57.3715 36.5663 56.762 35.5389 56.762C34.5115 56.762 33.7643 57.3715 33.5776 58.3091Z" fill="white"/>
<path d="M46.093 60.9817H47.1671V63.7948H45.953V62.1538H40.6759V63.7948H39.4617V60.9817H39.5551C39.9753 60.9817 40.5358 60.9817 40.6292 59.8095C40.6759 59.1531 40.6759 56.8088 40.6759 55.7773H46.0464V60.9817H46.093ZM44.8322 60.9817V56.9495H41.89C41.89 57.8403 41.89 59.0125 41.8433 59.7157C41.7966 60.2783 41.7033 60.7003 41.5632 60.9817H44.8322Z" fill="white"/>
<path d="M55.5261 58.3092C56.4134 58.3561 56.9272 58.9187 56.9272 59.9032V62.2007H55.7129V60.1377C55.7129 59.7157 55.4794 59.5282 55.0592 59.5282H53.1445V62.2007H51.9302V59.5282H50.0155C49.5953 59.5282 49.3617 59.7626 49.3617 60.1377V62.2007H48.1475V59.9032C48.1475 58.9187 48.6613 58.403 49.5486 58.3092L48.0542 55.7773H49.3617L50.8562 58.3092H51.8835V55.7773H53.0977V58.3092H54.1252L55.6195 55.7773H56.9272L55.5261 58.3092Z" fill="white"/>
<path d="M69.4428 62.1538H68.2287V57.137L66.0805 62.1538H65.1932L63.045 57.137V62.1538H61.8308V55.7305H63.6988L65.6602 60.3253L67.6216 55.7305H69.4896V62.1538H69.4428Z" fill="white"/>
<path d="M76.1207 55.7305H77.3349V62.1538H76.1207V57.5121L72.5248 62.1538H71.3105V55.7305H72.5248V60.4191L76.1207 55.7305Z" fill="white"/>
<path d="M85.9746 58.9657C85.9746 60.9818 84.5736 62.3884 82.7523 62.3415C81.7249 62.3415 80.931 61.8727 80.4641 61.1693H80.4173V64.7796H79.2031V55.7775H80.4173V56.7153H80.4641C80.931 56.0588 81.7249 55.6368 82.7523 55.59C84.6203 55.5431 85.9746 56.9497 85.9746 58.9657ZM84.7604 58.9657C84.7604 57.7467 83.9198 56.7622 82.5655 56.7622C81.258 56.7622 80.4173 57.7467 80.4173 58.9657C80.4173 60.1848 81.258 61.1693 82.5655 61.1693C83.9198 61.1693 84.7604 60.1848 84.7604 58.9657Z" fill="white"/>
<path d="M87.002 58.9656C87.002 57.0902 88.4029 55.5898 90.4577 55.5898C92.5126 55.5898 93.8668 57.0902 93.8668 58.9656C93.8668 60.8411 92.5126 62.3414 90.4577 62.3414C88.4029 62.3414 87.002 60.8411 87.002 58.9656ZM92.6527 58.9656C92.6527 57.7465 91.7653 56.762 90.4577 56.762C89.1034 56.762 88.2162 57.7465 88.2162 58.9656C88.2162 60.1846 89.1034 61.1693 90.4577 61.1693C91.7653 61.1693 92.6527 60.1377 92.6527 58.9656Z" fill="white"/>
<path d="M100.125 58.8249C100.825 59.1062 101.105 59.7157 101.105 60.3253C101.105 61.2161 100.451 62.1538 99.1434 62.1538H95.2209V55.7305H98.9104C100.218 55.7305 100.825 56.5744 100.825 57.4652C100.825 57.9341 100.638 58.4967 100.125 58.778V58.8249ZM96.4818 56.9495V58.3561H98.9104C99.3774 58.3561 99.6576 57.981 99.6576 57.6528C99.6576 57.3245 99.4236 56.9495 98.9104 56.9495H96.4818ZM99.0972 60.9817C99.6104 60.9817 99.8907 60.6066 99.8907 60.2784C99.8907 59.9501 99.6104 59.5751 99.0972 59.5751H96.4818V60.9817H99.0972Z" fill="white"/>
<path d="M102.086 58.9656C102.086 57.0902 103.488 55.5898 105.542 55.5898C107.597 55.5898 108.952 57.0902 108.952 58.9656C108.952 60.8411 107.597 62.3414 105.542 62.3414C103.44 62.3414 102.086 60.8411 102.086 58.9656ZM107.737 58.9656C107.737 57.7465 106.849 56.762 105.542 56.762C104.188 56.762 103.301 57.7465 103.301 58.9656C103.301 60.1846 104.188 61.1693 105.542 61.1693C106.849 61.1693 107.737 60.1377 107.737 58.9656Z" fill="white"/>
<path d="M115.116 55.7307H116.329V62.154H115.116V57.5123L111.52 62.154H110.305V55.7307H111.52V60.4192L115.116 55.7307ZM112.359 54.6991C111.753 54.6991 111.286 54.2303 111.286 53.6208V52.8237H112.313V53.4333C112.313 53.6208 112.453 53.7614 112.64 53.7614H113.995C114.181 53.7614 114.321 53.6208 114.321 53.4333V52.8237H115.349V53.6208C115.349 54.2303 114.882 54.6991 114.275 54.6991H112.359Z" fill="white"/>
<path d="M127.584 58.9656C127.584 60.8411 126.23 62.3415 124.221 62.3415C122.541 62.3415 121.28 61.263 120.953 59.8095H122.214C122.494 60.6067 123.241 61.1693 124.175 61.1693C125.296 61.1693 126.043 60.466 126.277 59.5282H123.661V58.3561H126.277C126.043 57.4183 125.296 56.762 124.175 56.762C123.194 56.762 122.494 57.3246 122.214 58.0748H120.953C121.233 56.6213 122.541 55.543 124.221 55.543C126.23 55.543 127.584 57.0433 127.584 58.9656Z" fill="white"/>
<path d="M133.281 58.3092C134.169 58.403 134.682 58.9187 134.682 59.8564V62.1538H133.468V60.0909C133.468 59.6688 133.235 59.4813 132.814 59.4813H130.153V62.1538H128.938V55.7305H130.153V58.2623H131.927L133.422 55.7305H134.73L133.281 58.3092Z" fill="white"/>
<path d="M135.897 58.9656C135.897 57.0902 137.298 55.5898 139.353 55.5898C141.407 55.5898 142.762 57.0902 142.762 58.9656C142.762 60.8411 141.407 62.3414 139.353 62.3414C137.298 62.3414 135.897 60.8411 135.897 58.9656ZM141.548 58.9656C141.548 57.7465 140.66 56.762 139.353 56.762C137.998 56.762 137.111 57.7465 137.111 58.9656C137.111 60.1846 137.998 61.1693 139.353 61.1693C140.66 61.1693 141.548 60.1377 141.548 58.9656Z" fill="white"/>
<path d="M148.926 55.7305H150.14V62.1538H148.926V59.4813H145.33V62.1538H144.116V55.7305H145.33V58.2623H148.926V55.7305Z" fill="white"/>
<path d="M151.542 58.9656C151.542 57.0902 152.942 55.5898 154.997 55.5898C157.052 55.5898 158.406 57.0902 158.406 58.9656C158.406 60.8411 157.052 62.3414 154.997 62.3414C152.895 62.3414 151.542 60.8411 151.542 58.9656ZM157.191 58.9656C157.191 57.7465 156.304 56.762 154.997 56.762C153.643 56.762 152.755 57.7465 152.755 58.9656C152.755 60.1846 153.643 61.1693 154.997 61.1693C156.304 61.1693 157.191 60.1377 157.191 58.9656Z" fill="white"/>
<path d="M167.419 62.1538H166.205V57.137L164.057 62.1538H163.17L161.021 57.137V62.1538H159.807V55.7305H161.675L163.637 60.3253L165.598 55.7305H167.467V62.1538H167.419Z" fill="white"/>
<path d="M174.05 55.7305H175.265V62.1538H174.05V57.5121L170.455 62.1538H169.24V55.7305H170.455V60.4191L174.05 55.7305Z" fill="white"/>
<path d="M181.522 58.3092C182.41 58.403 182.923 58.9187 182.923 59.8564V62.1538H181.709V60.0909C181.709 59.6688 181.476 59.4813 181.055 59.4813H178.394V62.1538H177.179V55.7305H178.394V58.2623H180.168L181.663 55.7305H182.971L181.522 58.3092Z" fill="white"/>
<path d="M189.415 55.7305H190.629V62.1538H189.415V57.5121L185.819 62.1538H184.605V55.7305H185.819V60.4191L189.415 55.7305Z" fill="white"/>
<path d="M4.81012 73.6411H6.0243V80.0645H4.81012V75.3759L1.21418 80.0176H0V73.5942H1.21418V78.2828L4.81012 73.6411Z" fill="white"/>
<path d="M17.092 80.0176H15.8778V74.8133H12.3753V80.0176H11.1611V73.5942H17.1387V80.0176H17.092Z" fill="white"/>
<path d="M25.031 77.2509H19.754C19.8473 78.2355 20.6879 79.0326 21.8087 79.0326C22.6493 79.0326 23.3031 78.6575 23.5833 78.048H24.8442C24.4239 79.4077 23.2097 80.2047 21.7153 80.2047C19.6605 80.2047 18.3997 78.6575 18.3997 76.829C18.3997 74.9535 19.7539 73.4531 21.7153 73.4531C23.8636 73.4531 25.2178 75.1411 25.031 77.2509ZM19.8006 76.1725H23.7234C23.5366 75.2348 22.7894 74.6253 21.762 74.6253C20.7346 74.6253 19.9874 75.2817 19.8006 76.1725Z" fill="white"/>
<path d="M33.2034 76.8291C33.2034 78.8452 31.8024 80.2518 29.9811 80.2049C28.9537 80.2049 28.1599 79.736 27.6928 79.0327H27.6461V82.643H26.4319V73.6409H27.6461V74.5786H27.6928C28.1599 73.9222 28.9537 73.5002 29.9811 73.4533C31.8491 73.4065 33.2034 74.813 33.2034 76.8291ZM31.9892 76.8291C31.9892 75.6101 31.1486 74.6254 29.7944 74.6254C28.4867 74.6254 27.6461 75.6101 27.6461 76.8291C27.6461 78.0482 28.4867 79.0327 29.7944 79.0327C31.1486 79.0327 31.9892 78.0482 31.9892 76.8291Z" fill="white"/>
<path d="M40.8157 77.2509H35.5387C35.6321 78.2355 36.4727 79.0326 37.5935 79.0326C38.4341 79.0326 39.0879 78.6575 39.3681 78.048H40.6289C40.2087 79.4077 38.9945 80.2047 37.5001 80.2047C35.4453 80.2047 34.1843 78.6575 34.1843 76.829C34.1843 74.9535 35.5387 73.4531 37.5001 73.4531C39.6483 73.4531 41.0026 75.1411 40.8157 77.2509ZM35.5854 76.1725H39.5081C39.3214 75.2348 38.5742 74.6253 37.5468 74.6253C36.5194 74.6253 35.7721 75.2817 35.5854 76.1725Z" fill="white"/>
<path d="M48.1008 78.8454H49.1749V81.6585H47.9607V80.0176H42.6836V81.6585H41.4695V78.8454H41.5629C41.9831 78.8454 42.5436 78.8454 42.637 77.6733C42.6837 77.0169 42.6836 74.6726 42.6836 73.6411H48.0542V78.8454H48.1008ZM46.84 78.8454V74.8133H43.8978C43.8978 75.7041 43.8978 76.8762 43.8511 77.5796C43.8044 78.1422 43.711 78.5641 43.571 78.8454H46.84Z" fill="white"/>
<path d="M49.7354 76.829C49.7354 74.9535 51.1364 73.4531 53.1912 73.4531C55.246 73.4531 56.6002 74.9535 56.6002 76.829C56.6002 78.7043 55.246 80.2047 53.1912 80.2047C51.1364 80.2047 49.7354 78.7043 49.7354 76.829ZM55.3861 76.829C55.3861 75.6099 54.4988 74.6253 53.1912 74.6253C51.8369 74.6253 50.9496 75.6099 50.9496 76.829C50.9496 78.048 51.8369 79.0326 53.1912 79.0326C54.4988 79.0326 55.3861 78.0011 55.3861 76.829Z" fill="white"/>
<path d="M62.8579 76.7355C63.5584 77.0168 63.8386 77.6264 63.8386 78.2359C63.8386 79.1267 63.1848 80.0645 61.8772 80.0645H57.9543V73.6411H61.6437C62.9513 73.6411 63.5584 74.485 63.5584 75.3759C63.5584 75.8447 63.3715 76.4073 62.8579 76.6886V76.7355ZM59.2153 74.8133V76.2198H61.6437C62.1107 76.2198 62.3908 75.8447 62.3908 75.5166C62.3908 75.1884 62.1574 74.8133 61.6437 74.8133H59.2153ZM61.8305 78.8454C62.3442 78.8454 62.6244 78.4703 62.6244 78.1422C62.6244 77.814 62.3442 77.4389 61.8305 77.4389H59.2153V78.8454H61.8305Z" fill="white"/>
<path d="M68.6022 75.7041C69.8163 75.7041 70.7503 76.6419 70.7503 77.8608C70.7503 79.0799 69.8163 80.0176 68.6022 80.0176H65.2397V73.5942H66.454V75.7041H68.6022ZM68.6022 78.8455C69.1159 78.8455 69.5362 78.4234 69.5362 77.8608C69.5362 77.3451 69.1159 76.9232 68.6022 76.9232H66.454V78.8455H68.6022ZM71.6377 73.6411H72.8519V80.0645H71.6377V73.6411Z" fill="white"/>
<path d="M80.604 80.0176H78.9694L77.2416 77.7671L75.5604 80.0176H74.0193L76.5411 76.7825L74.1127 73.5942H75.7005L77.335 75.7978L78.9694 73.5942H80.4639L78.0354 76.7356L80.604 80.0176Z" fill="white"/>
<path d="M90.0841 74.8133H87.8426V80.0176H86.6284V74.8133H84.3867V73.6411H90.1309V74.8133H90.0841Z" fill="white"/>
<path d="M97.1824 77.2509H91.9053C91.9987 78.2355 92.8393 79.0326 93.9601 79.0326C94.8007 79.0326 95.4545 78.6575 95.7347 78.048H96.9955C96.5753 79.4077 95.3611 80.2047 93.8667 80.2047C91.8119 80.2047 90.551 78.6575 90.551 76.829C90.551 74.9535 91.9053 73.4531 93.8667 73.4531C96.0149 73.4531 97.3225 75.1411 97.1824 77.2509ZM91.9053 76.1725H95.8281C95.6413 75.2348 94.8941 74.6253 93.8667 74.6253C92.886 74.6253 92.0921 75.2817 91.9053 76.1725Z" fill="white"/>
<path d="M104.141 80.0176H102.506L100.779 77.7671L99.0971 80.0176H97.5562L100.078 76.7825L97.6496 73.5942H99.2377L100.872 75.7978L102.506 73.5942H104.001L101.572 76.7356L104.141 80.0176Z" fill="white"/>
<path d="M110.071 73.6411H111.286V80.0645H110.071V77.392H106.476V80.0645H105.261V73.6411H106.476V76.1729H110.071V73.6411Z" fill="white"/>
<path d="M112.641 76.829C112.641 74.9535 114.041 73.4531 116.096 73.4531C118.151 73.4531 119.505 74.9535 119.505 76.829C119.505 78.7043 118.151 80.2047 116.096 80.2047C114.041 80.2047 112.641 78.7043 112.641 76.829ZM118.291 76.829C118.291 75.6099 117.404 74.6253 116.096 74.6253C114.742 74.6253 113.855 75.6099 113.855 76.829C113.855 78.048 114.742 79.0326 116.096 79.0326C117.404 79.0326 118.291 78.0011 118.291 76.829Z" fill="white"/>
<path d="M126.884 80.0176H125.67V74.8133H122.681C122.681 75.751 122.681 76.9701 122.635 77.6733C122.494 80.0645 121.186 80.0645 120.439 80.0645H120.252V78.8454H120.393C120.813 78.8454 121.373 78.8454 121.467 77.6733C121.514 77.0169 121.514 74.6726 121.514 73.6411H126.978V80.0176H126.884Z" fill="white"/>
<path d="M128.284 76.829C128.284 74.9535 129.686 73.4531 131.741 73.4531C133.796 73.4531 135.15 74.9535 135.15 76.829C135.15 78.7043 133.796 80.2047 131.741 80.2047C129.639 80.2047 128.284 78.7043 128.284 76.829ZM133.889 76.829C133.889 75.6099 133.001 74.6253 131.693 74.6253C130.339 74.6253 129.453 75.6099 129.453 76.829C129.453 78.048 130.339 79.0326 131.693 79.0326C133.048 79.0326 133.889 78.0011 133.889 76.829Z" fill="white"/>
<path d="M141.408 74.8133H137.718V80.0176H136.504V73.5942H141.408V74.8133Z" fill="white"/>
<path d="M147.384 73.6411H148.599V80.0645H147.384V75.3759L143.789 80.0176H142.574V73.5942H143.789V78.2828L147.384 73.6411Z" fill="white"/>
<path d="M155.23 73.6408H156.444V80.0642H155.23V75.3756L151.634 80.0173H150.42V73.594H151.634V78.2825L155.23 73.6408ZM152.522 72.5625C151.914 72.5625 151.447 72.0937 151.447 71.4841V70.687H152.475V71.2965C152.475 71.4841 152.615 71.6248 152.802 71.6248H154.156C154.343 71.6248 154.484 71.4841 154.484 71.2965V70.687H155.51V71.4841C155.51 72.0937 155.043 72.5625 154.436 72.5625H152.522Z" fill="white"/>
</g>
<defs>
<linearGradient id="paint0_linear_595_62" x1="286.177" y1="78.32" x2="328.955" y2="78.32" gradientUnits="userSpaceOnUse">
<stop stop-color="#9789F8"/>
<stop offset="1" stop-color="#00FE5D"/>
</linearGradient>
<linearGradient id="paint1_linear_595_62" x1="345.672" y1="54.6173" x2="381.565" y2="54.6173" gradientUnits="userSpaceOnUse">
<stop stop-color="#FF00FF"/>
<stop offset="1" stop-color="#9789F8"/>
</linearGradient>
<linearGradient id="paint2_linear_595_62" x1="315.679" y1="7.21261" x2="368.289" y2="7.21261" gradientUnits="userSpaceOnUse">
<stop stop-color="#293DF4"/>
<stop offset="1" stop-color="#FF00FF"/>
</linearGradient>
<clipPath id="clip0_595_62">
<rect width="470" height="88.4937" fill="white"/>
</clipPath>
</defs>
</svg>
